<?xml version="1.0" encoding="UTF-8"?>
<svg width="30px" height="30px" viewBox="0 0 30 30" version="1.1" xmlns="http://www.w3.org/2000/svg" xmlns:xlink="http://www.w3.org/1999/xlink">
    <!-- Generator: Sketch 43.1 (39012) - http://www.bohemiancoding.com/sketch -->
    <title>question</title>
    <desc>Created with Sketch.</desc>
    <defs></defs>
    <g id="Page-1" stroke="none" stroke-width="1" fill="none" fill-rule="evenodd">
        <g id="Homepage--Unsigned-user" transform="translate(-625.000000, -4897.000000)" fill-rule="nonzero" fill="#34495E">
            <g id="question" transform="translate(625.000000, 4897.000000)">
                <path d="M15,0 C6.68181818,0 0,6.68181818 0,15 C0,23.3181818 6.68181818,30 15,30 C23.3181818,30 30,23.3181818 30,15 C30,6.68181818 23.3181818,0 15,0 Z M16.3636364,23.1818182 C16.3636364,23.5909091 16.0909091,23.8636364 15.6818182,23.8636364 L14.3181818,23.8636364 C13.9090909,23.8636364 13.6363636,23.5909091 13.6363636,23.1818182 L13.6363636,21.8181818 C13.6363636,21.4090909 13.9090909,21.1363636 14.3181818,21.1363636 L15.6818182,21.1363636 C16.0909091,21.1363636 16.3636364,21.4090909 16.3636364,21.8181818 L16.3636364,23.1818182 Z M18.2045455,17.1136364 C17.25,17.9318182 16.5681818,18.4772727 16.3636364,19.2272727 C16.2954545,19.5681818 16.0227273,19.7727273 15.6818182,19.7727273 L14.3181818,19.7727273 C13.9090909,19.7727273 13.5681818,19.4318182 13.6363636,19.0227273 C13.9090909,17.0454545 15.3409091,15.9545455 16.5,15 C17.7272727,14.0454545 18.4090909,13.4318182 18.4090909,12.2727273 C18.4090909,10.3636364 16.9090909,8.86363636 15,8.86363636 C13.0909091,8.86363636 11.5909091,10.3636364 11.5909091,12.2727273 L11.5909091,12.6818182 C11.6590909,13.0227273 11.4545455,13.3636364 11.1136364,13.4318182 L9.81818182,13.8409091 C9.40909091,13.9772727 9,13.7045455 8.93181818,13.2954545 C8.86363636,12.9545455 8.86363636,12.6136364 8.86363636,12.2727273 C8.86363636,8.86363636 11.5909091,6.13636364 15,6.13636364 C18.4090909,6.13636364 21.1363636,8.86363636 21.1363636,12.2727273 C21.1363636,14.7954545 19.5,16.0909091 18.2045455,17.1136364 Z" id="Shape"></path>
            </g>
        </g>
    </g>
</svg>