<?xml version="1.0" encoding="UTF-8"?>
<svg width="40px" height="30px" viewBox="0 0 40 30" version="1.1" xmlns="http://www.w3.org/2000/svg" xmlns:xlink="http://www.w3.org/1999/xlink">
    <!-- Generator: Sketch 43.1 (39012) - http://www.bohemiancoding.com/sketch -->
    <title>noun_597710_cc</title>
    <desc>Created with Sketch.</desc>
    <defs></defs>
    <g id="Page-1" stroke="none" stroke-width="1" fill="none" fill-rule="evenodd">
        <g id="Homepage--Unsigned-user" transform="translate(-620.000000, -1712.000000)" fill="#34495E">
            <g id="noun_597710_cc" transform="translate(620.000000, 1712.000000)">
                <g id="Group" transform="translate(0.000000, 0.637820)">
                    <path d="M5.99184783,0.155004823 C4.11721264,0.155004823 2.56793478,1.70428268 2.56793478,3.57891787 L2.56793478,22.4104524 L1.28396748,22.4104524 C0.554203211,22.4104524 -0.000213866168,23.1140238 1.28396741e-07,23.6944198 L1.28396741e-07,25.4063764 C1.28396741e-07,27.5181175 1.74016109,29.2582785 3.85190217,29.2582785 L35.5230978,29.2582785 C37.634839,29.2582785 39.375,27.5181175 39.375,25.4063764 L39.375,23.6944198 C39.3749144,23.0221773 38.7633179,22.410538 38.0910326,22.4104524 L36.8070652,22.4104524 L36.8070652,3.57891787 C36.8070652,1.70428268 35.2577874,0.155004823 33.3831522,0.155004823 L5.99184783,0.155004823 Z M5.99184783,2.72293961 L33.3831522,2.72293961 C33.8795768,2.72293961 34.2391304,3.08249327 34.2391304,3.57891787 L5.13586957,3.57891787 C5.13586957,3.08249327 5.49542323,2.72293961 5.99184783,2.72293961 Z M5.13586957,6.14685265 L34.2391304,6.14685265 L34.2391304,22.4104524 L5.13586957,22.4104524 L5.13586957,6.14685265 Z M17.9755435,7.43082004 C17.2759952,7.43077724 16.6925605,8.02807887 16.6915761,8.71478743 L16.6915761,19.8425177 C16.6916617,20.514803 17.3032582,21.1263995 17.9755435,21.1264851 L21.3994565,21.1264851 C22.0717418,21.1263995 22.6833383,20.514803 22.6834239,19.8425177 L22.6834239,8.71478743 C22.6833383,8.04250211 22.0717418,7.43090564 21.3994565,7.43082004 L17.9755435,7.43082004 Z M24.3953804,9.57076569 C23.6671141,9.5784695 23.1150082,10.2619681 23.111413,10.8547331 L23.111413,19.8425177 C23.1114986,20.514803 23.7230951,21.1263995 24.3953804,21.1264851 L27.8192935,21.1264851 C28.4915788,21.1263995 29.1031753,20.514803 29.1032609,19.8425177 L29.1032609,10.8547331 C29.1031753,10.1824478 28.4915788,9.57085129 27.8192935,9.57076569 L24.3953804,9.57076569 Z M19.2595109,9.99875482 L20.1154891,9.99875482 L20.1154891,18.5585503 L19.2595109,18.5585503 L19.2595109,9.99875482 Z M11.5557065,11.7107113 C10.8977588,11.7162752 10.2810265,12.2685952 10.2717391,12.9946787 L10.2717391,19.8425177 C10.2718247,20.514803 10.8834212,21.1263995 11.5557065,21.1264851 L14.9796196,21.1264851 C15.6519049,21.1263995 16.2635014,20.514803 16.263587,19.8425177 L16.263587,12.9946787 C16.2635014,12.3223934 15.6519049,11.7107969 14.9796196,11.7107113 L11.5557065,11.7107113 Z M25.6793478,12.1387005 L26.5353261,12.1387005 L26.5353261,18.5585503 L25.6793478,18.5585503 L25.6793478,12.1387005 Z M12.8396739,14.278659 L13.6956522,14.278659 L13.6956522,18.5585503 L12.8396739,18.5585503 L12.8396739,14.278659 Z M2.56793478,24.9783872 L36.8070652,24.9783872 L36.8070652,25.4063764 C36.8070652,26.1399069 36.2566284,26.6903437 35.5230978,26.6903437 L3.85190217,26.6903437 C3.1183716,26.6903437 2.56793478,26.1399069 2.56793478,25.4063764 L2.56793478,24.9783872 Z" id="Shape"></path>
                </g>
            </g>
        </g>
    </g>
</svg>