<?xml version="1.0" encoding="UTF-8"?>
<svg width="29px" height="30px" viewBox="0 0 29 30" version="1.1" xmlns="http://www.w3.org/2000/svg" xmlns:xlink="http://www.w3.org/1999/xlink">
    <!-- Generator: Sketch 43.1 (39012) - http://www.bohemiancoding.com/sketch -->
    <title>001-leadership</title>
    <desc>Created with Sketch.</desc>
    <defs></defs>
    <g id="Page-1" stroke="none" stroke-width="1" fill="none" fill-rule="evenodd">
        <g id="Homepage--Unsigned-user" transform="translate(-626.000000, -3505.000000)" fill="#34495E">
            <g id="001-leadership" transform="translate(626.000000, 3505.000000)">
                <path d="M24.3282087,19.0966406 C22.43319,17.2211719 20.0974527,15.9408984 17.5524274,15.348457 L15.8946412,16.9891406 L16.6211401,25.694707 C16.6457692,25.9900781 16.5644813,26.2845117 16.3914857,26.5263867 L14.7338179,28.8445313 C14.6268945,28.9940625 14.4532476,29.0830078 14.2681151,29.0830078 C14.0829825,29.0830078 13.9093356,28.9940625 13.8024122,28.8445313 L12.1447445,26.5263867 C11.971808,26.2845117 11.890461,25.9900195 11.9150901,25.694707 L12.6415889,16.989082 L10.9838028,15.3483984 C8.43877745,15.9408398 6.10304018,17.2210547 4.20802146,19.096582 C1.52090527,21.7559766 0.041028742,25.291875 0.041028742,29.0528906 C0.041028742,29.575957 0.469491954,30 0.998010829,30 L27.5382193,30 C28.0667382,30 28.4952014,29.575957 28.4952014,29.0528906 C28.4952606,25.291875 27.0153249,21.7560352 24.3282087,19.0966406 Z" id="Shape"></path>
                <path d="M21.8320863,2.34521484 C21.6914164,2.29869141 21.5364781,2.34638672 21.4473161,2.46363281 L18.9609032,5.73292969 L14.3920894,0.12703125 C14.3266091,0.046640625 14.2279744,0 14.1237152,0 C14.0195152,0 13.9208213,0.046640625 13.8553411,0.12703125 L9.28658638,5.73292969 L7.09151908,2.77347656 C7.00330432,2.65453125 6.84789242,2.60519531 6.70627517,2.65113281 C6.56465793,2.69707031 6.46880579,2.82785156 6.46880579,2.97539062 L6.46880579,8.07527344 L22.0675428,8.07527344 L22.0675428,2.66882812 C22.0675428,2.52205078 21.9726971,2.39173828 21.8320863,2.34521484 Z" id="Shape"></path>
                <path d="M6.46874658,9.96955078 L6.46874658,11.8631836 C6.46874658,12.2830664 6.81266572,12.6234375 7.23698462,12.6234375 L21.2993639,12.6234375 C21.7236236,12.6234375 22.0675428,12.2830664 22.0675428,11.8631836 L22.0675428,9.96955078 L6.46874658,9.96955078 Z" id="Shape"></path>
            </g>
        </g>
    </g>
</svg>