<?xml version="1.0" encoding="UTF-8"?>
<svg width="78px" height="78px" viewBox="0 0 78 78" version="1.1" xmlns="http://www.w3.org/2000/svg" xmlns:xlink="http://www.w3.org/1999/xlink">
    <!-- Generator: Sketch 43.1 (39012) - http://www.bohemiancoding.com/sketch -->
    <title>Shape</title>
    <desc>Created with Sketch.</desc>
    <defs>
        <linearGradient x1="108.38806%" y1="0%" x2="14.9467263%" y2="84.0089928%" id="linearGradient-1">
            <stop stop-color="#FBC865" offset="0%"></stop>
            <stop stop-color="#F37A6B" offset="100%"></stop>
        </linearGradient>
    </defs>
    <g id="Page-1" stroke="none" stroke-width="1" fill="none" fill-rule="evenodd">
        <g id="v" transform="translate(0.000000, -1.000000)" fill="url(#linearGradient-1)">
            <path d="M68.4446992,14.6213013 C74.5781482,21.8046741 77.645096,30.2530433 77.645096,39.9664091 L77.645096,40.0120393 C77.645096,50.794327 73.8934779,59.9881406 66.3902417,67.5934801 C59.7360324,74.27989 51.9045296,78.029701 42.8979664,78.8424612 L42.8979664,79.0010376 L1.42108547e-14,79.0010376 C5.65735076,78.5944316 10.8082331,77.5928254 15.4530936,75.9966709 C17.1502542,75.3339032 18.7134284,74.6562265 20.1426162,73.9636409 C33.8838107,67.201783 40.5009505,54.0178091 39.9949286,34.4099121 C16.4280677,36.2170499 3.26033477,48.4075498 0.491283322,70.9818635 L0.200979541,73.9636409 C0.1116553,74.8970276 0.0446621202,75.8385464 1.42108547e-14,76.7872937 L1.42108547e-14,1 L42.8979664,1 L42.8979664,1.18071378 C51.9045296,1.97901691 59.7355858,5.72114753 66.3902417,12.4075574 L68.4446992,14.6213013 Z" id="Shape"></path>
        </g>
    </g>
</svg>