<?xml version="1.0" encoding="UTF-8"?>
<svg width="28px" height="30px" viewBox="0 0 28 30" version="1.1" xmlns="http://www.w3.org/2000/svg" xmlns:xlink="http://www.w3.org/1999/xlink">
    <!-- Generator: Sketch 43.1 (39012) - http://www.bohemiancoding.com/sketch -->
    <title>003-sale</title>
    <desc>Created with Sketch.</desc>
    <defs></defs>
    <g id="Page-1" stroke="none" stroke-width="1" fill="none" fill-rule="evenodd">
        <g id="Homepage--Unsigned-user" transform="translate(-626.000000, -2545.000000)" fill="#34495E">
            <g id="003-sale" transform="translate(626.000000, 2545.000000)">
                <g id="Group">
                    <path d="M17.7651064,15.5346117 C17.1554043,15.5346117 16.6482675,15.7408252 16.2989909,16.1312621 C15.9857508,16.481068 15.813155,16.956699 15.813155,17.4707767 C15.813155,18.4149029 16.4308815,19.4312621 17.786845,19.4312621 C18.396693,19.4312621 18.9036839,19.2250485 19.2529605,18.8346117 C19.5662006,18.4848058 19.7386505,18.0090291 19.7386505,17.4950971 C19.7386505,16.5508252 19.1210699,15.5346117 17.7651064,15.5346117 Z" id="Shape"></path>
                    <path d="M25.1428085,0 L2.52882675,0 C1.22392705,0 0.0729483283,1.06703883 0.0729483283,2.33009709 L0.0729483283,27.6699029 C0.0729483283,28.7448058 0.42631003,30 1.35421277,30 C2.13578116,30 3.39676596,28.8171845 3.53201216,28.6868447 L4.57473556,27.7047087 C4.74499696,27.5404369 4.97784802,27.45 5.22499696,27.45 C5.472,27.45 5.7033921,27.5404369 5.87379939,27.7047087 L6.88807295,28.6823301 C7.55044377,29.321068 8.70215198,30 9.53142857,30 C10.360997,30 11.5124134,29.321068 12.1746383,28.6823301 L13.1886201,27.7047087 C13.3588815,27.5404369 13.5888146,27.45 13.8359635,27.45 C14.0829666,27.45 14.3128997,27.5404369 14.483307,27.7047087 L15.4968511,28.6823301 C16.159076,29.321068 17.3104924,30 18.139769,30 C18.9693374,30 20.1206079,29.321068 20.7826869,28.6823301 L21.7965228,27.7047087 C21.9667842,27.5404369 22.1965714,27.45 22.4438663,27.45 C22.6908693,27.45 22.9208024,27.5404369 23.0912097,27.7047087 L24.1047538,28.6823301 C24.6149544,29.1744175 25.5438784,30 26.1958906,30 C26.9593678,30 27.3556231,29.1723786 27.3556231,27.6699029 L27.3556231,2.33009709 C27.3556231,1.02349515 26.4107964,0 25.1428085,0 Z M7.14514286,6.36495146 C7.83362918,5.61597087 8.80763526,5.22014563 9.9619696,5.22014563 C12.4427964,5.22014563 13.7409848,7.05626214 13.7409848,8.86995146 C13.7409848,9.82237864 13.4035258,10.7121845 12.790614,11.3756796 C12.0992097,12.1240777 11.1211185,12.5197573 9.9619696,12.5197573 C7.49208511,12.5197573 6.19973252,10.6836408 6.19973252,8.86995146 C6.19973252,7.91796117 6.53544073,7.02830097 7.14514286,6.36495146 Z M9.19265653,19.6601942 L6.78069301,19.6601942 L18.5762918,6.60247573 L20.9727903,6.54218447 L9.19265653,19.6601942 Z M20.5399149,19.9517476 C19.8617872,20.6860194 18.9022249,21.0741262 17.7651064,21.0741262 C15.3420547,21.0741262 14.0745046,19.2729612 14.0745046,17.4937864 C14.0745046,16.5598544 14.4039392,15.687233 15.0019696,15.0365534 C15.6773252,14.3018447 16.6328024,13.9135922 17.7651064,13.9135922 C20.1988085,13.9135922 21.4720486,15.7147573 21.4720486,17.493932 C21.4720486,18.4280097 21.1410091,19.3009223 20.5399149,19.9517476 Z" id="Shape"></path>
                    <path d="M9.9841459,10.8004369 C10.5957447,10.8004369 11.1041945,10.5946602 11.4543465,10.205534 C11.7677325,9.85703883 11.9404742,9.38315534 11.9404742,8.87126214 C11.9404742,7.93019417 11.3214347,6.9173301 9.9619696,6.9173301 C8.57595137,6.9173301 7.95545289,7.88635922 7.95545289,8.84679612 C7.95545289,9.78771845 8.59039514,10.8004369 9.9841459,10.8004369 Z" id="Shape"></path>
                </g>
            </g>
        </g>
    </g>
</svg>