<?xml version="1.0" encoding="UTF-8"?>
<svg width="30px" height="30px" viewBox="0 0 30 30" version="1.1" xmlns="http://www.w3.org/2000/svg" xmlns:xlink="http://www.w3.org/1999/xlink">
    <!-- Generator: Sketch 43.1 (39012) - http://www.bohemiancoding.com/sketch -->
    <title>002-puzzle</title>
    <desc>Created with Sketch.</desc>
    <defs></defs>
    <g id="Page-1" stroke="none" stroke-width="1" fill="none" fill-rule="evenodd">
        <g id="Homepage--Unsigned-user" transform="translate(-624.000000, -3073.000000)" fill="#34495E">
            <g id="002-puzzle" transform="translate(624.000000, 3073.000000)">
                <g id="Group">
                    <path d="M14.0537956,29.9922419 L14.0537956,29.9756309 L14.0537956,26.0450052 C13.544171,26.2788425 12.9859645,26.4028154 12.418561,26.4028154 C11.8850991,26.4028154 11.3674974,26.2972367 10.8801147,26.0890511 C10.4098436,25.888123 9.98865485,25.6010115 9.62834202,25.2356934 C8.88616267,24.4831908 8.48549531,23.4863087 8.50013556,22.4287696 C8.51430657,21.4056413 8.92335766,20.4414494 9.65199166,19.7138165 C10.3805944,18.9861522 11.345318,18.5783837 12.368634,18.5655266 C12.3853389,18.565245 12.4018874,18.5651825 12.4185923,18.5651825 C12.9860584,18.5651825 13.5442023,18.6892179 14.0538582,18.9229927 L14.0576747,15.0089155 L9.36932221,15.0089155 C9.48290928,14.8105839 9.65067779,14.5635766 9.84337852,14.2823462 C10.2160167,13.7384984 10.4935245,13.1093743 10.4845777,12.3968509 C10.4643691,10.7899583 9.1535975,9.47734098 7.5467049,9.45509906 C7.5326903,9.45491137 7.51845673,9.45481752 7.50447341,9.45481752 C5.85838373,9.45469239 4.52415016,10.7890824 4.52415016,12.4351408 C4.52415016,13.1317727 4.79746611,13.7472576 5.16372263,14.2799687 C5.34181439,14.5389885 5.52597497,14.8104275 5.63962461,15.0089155 L1.26416058,15.0089155 C0.573096976,15.0089155 0.0128571429,15.5691554 0.0128571429,16.260219 L0.0128571429,28.7408759 C0.0128571429,29.4319708 0.573096976,29.9921794 1.26416058,29.9921794 L14.0537956,29.9922419 L14.0537956,29.9922419 Z" id="Shape"></path>
                    <path d="M26.0487591,15.9217414 C26.2825652,16.431366 26.4065693,16.9895725 26.4065693,17.556976 C26.4065693,18.6037852 25.9989885,19.5879041 25.2588738,20.3280501 C24.5187278,21.068196 23.534609,21.4757456 22.4877998,21.4757456 C22.469562,21.4757456 22.4509802,21.4756204 22.4325235,21.4753702 C21.4093639,21.4611992 20.4452346,21.0521481 19.7175391,20.3235454 C18.9899062,19.5949426 18.5821064,18.6301877 18.5692492,17.6070282 C18.5619604,17.0216997 18.685902,16.446194 18.9265902,15.9216788 L15.9345985,15.9216788 L15.4653597,15.9216788 L14.9917101,15.9216788 L14.9922732,20.6190719 C14.8265381,20.5241919 14.5196559,20.3176017 14.2372367,20.1228363 C13.714098,19.7619291 13.1031804,19.5036601 12.4184672,19.5036601 C12.4057039,19.5036601 12.3930344,19.5037226 12.3801773,19.5039103 C10.7732847,19.5241189 9.46069864,20.8349218 9.43842544,22.4417831 C9.43079249,22.9923253 9.57259645,23.5091137 9.82564129,23.9544213 C10.3381126,24.8561105 11.3071846,25.4643691 12.4184672,25.4643691 C13.1031804,25.4643691 13.7000521,25.1850156 14.2371116,24.8451929 C14.5680188,24.6358498 14.8264755,24.4437748 14.9922106,24.3488947 L14.9922106,24.3709489 L14.9922106,29.9756621 L14.9960271,29.9756621 L15.4652659,29.9756621 L15.9345047,29.9756621 L28.724171,29.9756621 C29.4152659,29.9756621 29.9754745,29.4154223 29.9754745,28.7243587 L29.9754745,15.9217414 L26.0487591,15.9217414 Z" id="Shape"></path>
                    <path d="M28.7280501,0 L14.9960897,0 L14.9960897,5.7486757 C14.9960897,5.7486757 15.4993639,5.31297185 15.660219,5.19882169 C16.1766006,4.76953076 16.8402294,4.51126173 17.564171,4.51126173 C19.2242127,4.51126173 20.567268,5.86848801 20.5442753,7.53384776 C20.5220334,9.14070907 19.2094161,10.451512 17.6025235,10.4716893 C17.5897602,10.4718457 17.5769343,10.4719395 17.5641397,10.4719395 C16.8401043,10.4719395 16.1765693,10.2137018 15.6601877,9.78437956 C15.4992388,9.67026069 14.9960897,9.23455683 14.9960897,9.23455683 L14.9960897,14.9832951 L15.9345673,14.9832951 L20.6228884,14.9832951 C20.5794369,15.0721689 20.3281752,15.4531908 20.122805,15.7432742 C19.7498853,16.2699479 19.4989364,16.8980396 19.507633,17.5953597 C19.5278415,19.2021898 20.8386444,20.5147758 22.4455057,20.5370803 C22.4595203,20.537268 22.4737226,20.5373931 22.4877998,20.5373931 C23.2584776,20.5373931 23.9608029,20.2448384 24.489854,19.7649009 C25.0907925,19.2196142 25.4680918,18.4324192 25.4680918,17.5570386 C25.4680918,16.8740772 25.2106986,16.2648175 24.8518248,15.7421168 C24.623243,15.4091762 24.4505005,15.1534724 24.3579979,14.9923983 C24.3561522,14.9892701 24.354463,14.9863921 24.3526486,14.9832638 L29.8938269,14.9832638 L29.9793848,14.9832638 L29.9793848,14.4508968 L29.9793848,1.25130344 C29.9793535,0.560239833 29.4191449,0 28.7280501,0 Z" id="Shape"></path>
                </g>
            </g>
        </g>
    </g>
</svg>