<?xml version="1.0" encoding="UTF-8"?>
<svg width="27px" height="35px" viewBox="0 0 27 35" version="1.1" xmlns="http://www.w3.org/2000/svg" xmlns:xlink="http://www.w3.org/1999/xlink">
    <!-- Generator: Sketch 43.1 (39012) - http://www.bohemiancoding.com/sketch -->
    <title>graduate-student-avatar</title>
    <desc>Created with Sketch.</desc>
    <defs></defs>
    <g id="Page-1" stroke="none" stroke-width="1" fill="none" fill-rule="evenodd">
        <g id="Homepage--Unsigned-user" transform="translate(-627.000000, -4143.000000)" fill-rule="nonzero" fill="#34495E">
            <g id="graduate-student-avatar" transform="translate(627.000000, 4143.000000)">
                <path d="M24.2097361,24.5577303 C23.9500293,23.9404719 23.3246745,23.5452472 22.7280616,23.3022135 L18.6948475,21.4574382 L16.7571026,19.8341461 L13.6435513,22.9102921 L13.641176,22.9102921 L14.9849208,31.8329326 C14.9897507,31.8635281 14.9817537,31.8948315 14.9634633,31.9198427 L13.5585132,33.8297416 C13.5361848,33.8604944 13.5005543,33.8782697 13.4625484,33.8782697 C13.4245425,33.8782697 13.388912,33.8602584 13.3665836,33.8297416 L11.9617918,31.9198427 C11.9432639,31.8948315 11.9355044,31.8632921 11.940176,31.8329326 L13.2837625,22.9101348 L13.2817038,22.9101348 L10.1683109,19.8341461 L8.23056598,21.4574382 L4.19711437,23.3022135 C3.60034311,23.5452472 3.01394428,23.9143596 2.71559824,24.5577303 C2.71559824,24.5577303 -1.66861584,34.9259101 0.709363636,34.9259101 L26.2164457,34.9259101 C28.5940293,34.9261461 24.2097361,24.5577303 24.2097361,24.5577303 Z" id="Shape"></path>
                <path d="M24.489871,10.3418315 C24.5506012,10.3353034 24.6052346,10.3065169 24.6428446,10.2598764 C24.6809296,10.2133146 24.6981114,10.1533034 24.6913812,10.0936067 C24.6462493,9.71065169 24.6008798,9.32848315 24.5561437,8.94552809 L24.4621584,8.14414607 C24.447827,8.02451685 24.3400645,7.93752809 24.2187625,7.94830337 L24.0443314,7.94853933 L24.0476569,5.25849438 L24.1389501,5.22553933 L24.443393,5.11637079 C24.7011994,5.0237191 24.8728592,4.78092135 24.8728592,4.50886517 C24.8728592,4.23673034 24.7011994,3.99385393 24.443393,3.9011236 L13.6836158,0.0385393258 C13.5405396,-0.0128202247 13.3840821,-0.0128202247 13.2413226,0.0385393258 L2.4813871,3.9011236 C2.223739,3.99385393 2.05207918,4.23673034 2.05207918,4.50886517 C2.05207918,4.78092135 2.223739,5.0237191 2.4813871,5.11637079 L6.4590176,6.54429213 C6.17824927,7.42479775 6.05045455,8.43295506 6.06193548,9.55539326 C6.13192962,15.9577978 9.87344868,19.7757079 13.3354663,19.7757079 C16.7570235,19.7757079 20.5390821,15.9577978 20.6087595,9.55539326 C20.6203196,8.46748315 20.4995718,7.4875618 20.2368563,6.6265618 L23.1291026,5.58835955 L23.1351994,7.9495618 L22.9604516,7.94948315 C22.8390704,7.93894382 22.7312287,8.02561798 22.7173724,8.14619101 L22.4911584,10.095809 C22.484349,10.155191 22.5020059,10.214573 22.5398534,10.2612921 C22.5777801,10.3077753 22.6329677,10.3375843 22.692827,10.3425393 L24.489871,10.3418315 Z M13.3359413,18.2209213 C10.3154252,18.2209213 8.23119941,14.7061348 7.81075953,11.1925281 C7.4219912,7.94311236 12.1527713,7.79186517 12.427522,9.80589888 C12.5121642,10.4250449 11.7964663,11.0883146 11.8776246,11.3440112 C12.2779531,12.6062921 18.9064927,7.224 18.8612023,11.1909551 C18.8292933,13.9918202 16.2138563,18.2209213 13.3359413,18.2209213 Z" id="Shape"></path>
            </g>
        </g>
    </g>
</svg>