<?xml version="1.0" encoding="UTF-8"?>
<svg width="29px" height="30px" viewBox="0 0 29 30" version="1.1" xmlns="http://www.w3.org/2000/svg" xmlns:xlink="http://www.w3.org/1999/xlink">
    <!-- Generator: Sketch 43.1 (39012) - http://www.bohemiancoding.com/sketch -->
    <title>download-business-statistics-symbol-of-a-graphic</title>
    <desc>Created with Sketch.</desc>
    <defs></defs>
    <g id="Page-1" stroke="none" stroke-width="1" fill="none" fill-rule="evenodd">
        <g id="Homepage--Unsigned-user" transform="translate(-626.000000, -657.000000)" fill="#34495E">
            <g id="download-business-statistics-symbol-of-a-graphic" transform="translate(626.000000, 657.000000)">
                <g id="Group">
                    <polygon id="Shape" points="14.3826429 29.9368085 16.9392857 24.606383 11.9256429 24.6137234"></polygon>
                    <path d="M0.0536785714,0 L0.0536785714,23.361383 L28.81125,23.361383 L28.81125,0 L0.0536785714,0 Z M26.94375,21.507766 L1.92117857,21.507766 L1.92117857,1.85425532 L26.94375,1.85425532 L26.94375,21.507766 Z" id="Shape"></path>
                    <path d="M8.23082143,10.9739362 L4.87189286,14.4443617 L4.87189286,20.3004255 C4.87189286,20.4651064 5.00657143,20.5991489 5.17275,20.5991489 L9.25103571,20.5991489 C9.41721429,20.5991489 9.55189286,20.4654255 9.55189286,20.3004255 L9.55189286,11.3173404 L8.61139286,10.9739362 L8.23082143,10.9739362 Z" id="Shape"></path>
                    <path d="M16.5375,13.6956383 L12.4595357,13.6956383 C12.2930357,13.6956383 12.1583571,13.8293617 12.1583571,13.9943617 L12.1583571,20.3001064 C12.1583571,20.4651064 12.2930357,20.5991489 12.4595357,20.5991489 L16.5375,20.5991489 C16.7036786,20.5991489 16.8383571,20.4654255 16.8383571,20.3001064 L16.8383571,13.9940426 C16.8383571,13.8293617 16.7036786,13.6956383 16.5375,13.6956383 Z" id="Shape"></path>
                    <path d="M22.4652857,7.27180851 L21.7243929,6.65712766 L19.044,9.56042553 L19.044,20.3001064 C19.044,20.4647872 19.1786786,20.5988298 19.3451786,20.5988298 L23.4234643,20.5988298 C23.5896429,20.5988298 23.7243214,20.4651064 23.7243214,20.3001064 L23.7243214,7.37074468 C23.7076071,7.38031915 23.6925,7.39212766 23.6754643,7.40074468 C23.5195714,7.48180851 23.3443929,7.52457447 23.16825,7.52457447 C22.9107857,7.52489362 22.662,7.43521277 22.4652857,7.27180851 Z" id="Shape"></path>
                    <path d="M3.87546429,13.9969149 C4.03328571,13.9969149 4.19110714,13.9353191 4.30939286,13.8134043 L8.14821429,9.84702128 L14.8651071,12.3009574 C15.0946071,12.3842553 15.3511071,12.3226596 15.5166429,12.1439362 L21.7018929,5.44468085 L23.1489643,6.64595745 C23.22,6.70468085 23.3186786,6.71489362 23.4003214,6.67276596 C23.4816429,6.63031915 23.5298571,6.54382979 23.5215,6.45223404 L23.2077857,2.96968085 C23.1968571,2.84521277 23.0859643,2.75361702 22.9609286,2.76478723 L19.4531786,3.0756383 C19.3615714,3.08361702 19.2837857,3.14617021 19.2561429,3.23329787 C19.2474643,3.26202128 19.2445714,3.29170213 19.2471429,3.32074468 C19.2526071,3.37946809 19.2805714,3.435 19.3278214,3.47393617 L20.7781071,4.67744681 L14.9027143,11.0412766 L8.19578571,8.59085106 C7.97110714,8.50946809 7.71975,8.56691489 7.55389286,8.73734043 L3.44185714,12.9855319 C3.21171429,13.223617 3.21910714,13.6014894 3.45889286,13.83 C3.57525,13.941383 3.72535714,13.9969149 3.87546429,13.9969149 Z" id="Shape"></path>
                </g>
            </g>
        </g>
    </g>
</svg>